<svg xmlns="http://www.w3.org/2000/svg" xmlns:xlink="http://www.w3.org/1999/xlink" viewBox="0 0 500 500"><defs><linearGradient id="a" x1="129.33" y1="326.81" x2="370.67" y2="85.48" gradientUnits="userSpaceOnUse"><stop offset="0" stop-color="#0396ff"/><stop offset="1" stop-color="#20db90"/></linearGradient></defs><title>logo</title><text/><rect width="500" height="500" rx="50" style="fill:#fff"/><path d="M431,145.81l-33-32.95a23.41,23.41,0,0,0-33,0L206.14,272.06l-71.23-71.49a23.42,23.42,0,0,0-33,0L69,233.52a23.42,23.42,0,0,0,0,33l87.71,87.71,33,32.95a23.41,23.41,0,0,0,33,0l32.95-32.95L431,178.77a23.42,23.42,0,0,0,0-33Zm0,0" transform="translate(0 0)" style="fill:url(#a)"/></svg>